HIERARCHY
ROOT Hips
{
	OFFSET 0.000000 83.214638 0.000000
	CHANNELS 6 Xposition Yposition Zposition Xrotation Yrotation Zrotation
	JOINT Pelvis
	{
		OFFSET 0.000000 0.000000 0.000000
		CHANNELS 3 Xrotation Yrotation Zrotation
		JOINT LeftUpLeg
		{
			OFFSET 8.479700 -4.795502 -0.379100
			CHANNELS 3 Xrotation Yrotation Zrotation
			JOINT LeftLeg
			{
				OFFSET 0.024144 -32.555107 0.112900
				CHANNELS 3 Xrotation Yrotation Zrotation
				JOINT LeftFoot
				{
					OFFSET -0.024144 -32.638630 -3.012600
					CHANNELS 3 Xrotation Yrotation Zrotation
					JOINT LeftToeBase
					{
						OFFSET 0.970200 -13.225400 11.864200
						CHANNELS 3 Xrotation Yrotation Zrotation
						End Site
						{
							OFFSET 0.000000 12.319262 0.000000
						}
					}
					JOINT LFootTongue
					{
						OFFSET 1.142400 -1.059800 6.665200
						CHANNELS 3 Xrotation Yrotation Zrotation
						End Site
						{
							OFFSET 0.000000 12.319262 0.000000
						}
					}
				}
				JOINT LeftPantLeg
				{
					OFFSET 0.918482 -16.533964 -2.284700
					CHANNELS 3 Xrotation Yrotation Zrotation
					End Site
					{
						OFFSET 0.350399 24.744368 0.000000
					}
				}
			}
		}
		JOINT RightUpLeg
		{
			OFFSET -8.479700 -4.795502 -0.379100
			CHANNELS 3 Xrotation Yrotation Zrotation
			JOINT RightLeg
			{
				OFFSET -0.023144 -32.555092 0.112900
				CHANNELS 3 Xrotation Yrotation Zrotation
				JOINT RightFoot
				{
					OFFSET 0.023144 -32.638641 -3.012700
					CHANNELS 3 Xrotation Yrotation Zrotation
					JOINT RightToeBase
					{
						OFFSET -0.970200 -13.225400 11.864200
						CHANNELS 3 Xrotation Yrotation Zrotation
						End Site
						{
							OFFSET 0.000000 12.319244 0.000000
						}
					}
					JOINT RFootTongue
					{
						OFFSET -1.142200 -1.059800 6.665200
						CHANNELS 3 Xrotation Yrotation Zrotation
						End Site
						{
							OFFSET 0.000000 12.319243 0.000000
						}
					}
				}
				JOINT RightPantLeg
				{
					OFFSET -0.919482 -16.533978 -2.284800
					CHANNELS 3 Xrotation Yrotation Zrotation
					End Site
					{
						OFFSET -0.350400 24.744419 0.000000
					}
				}
			}
		}
	}
	JOINT Spine
	{
		OFFSET 0.000000 7.722000 1.166200
		CHANNELS 3 Xrotation Yrotation Zrotation
		JOINT Spine1
		{
			OFFSET 0.000000 12.024101 0.248800
			CHANNELS 3 Xrotation Yrotation Zrotation
			JOINT Spine2
			{
				OFFSET 0.000000 11.502998 -0.491200
				CHANNELS 3 Xrotation Yrotation Zrotation
				JOINT Neck
				{
					OFFSET 0.000000 18.430702 -3.123100
					CHANNELS 3 Xrotation Yrotation Zrotation
					JOINT Head
					{
						OFFSET 0.000000 9.051102 1.034000
						CHANNELS 3 Xrotation Yrotation Zrotation
						JOINT HairB
						{
							OFFSET 0.208400 24.786102 24.822300
							CHANNELS 3 Xrotation Yrotation Zrotation
							End Site
							{
								OFFSET 0.000000 32.263779 0.000000
							}
						}
						JOINT HairA
						{
							OFFSET -7.081100 24.428299 23.196600
							CHANNELS 3 Xrotation Yrotation Zrotation
							End Site
							{
								OFFSET 0.000000 32.263779 0.000000
							}
						}
						JOINT Hat
						{
							OFFSET 16.728800 15.048294 -15.439601
							CHANNELS 3 Xrotation Yrotation Zrotation
							End Site
							{
								OFFSET 0.000000 32.263779 0.000000
							}
						}
					}
				}
				JOINT LeftShoulder
				{
					OFFSET 6.197800 13.665199 -4.064700
					CHANNELS 3 Xrotation Yrotation Zrotation
					JOINT LeftArm
					{
						OFFSET 7.778100 -0.187103 -1.709300
						CHANNELS 3 Xrotation Yrotation Zrotation
						JOINT LeftForeArm
						{
							OFFSET 22.049376 0.000000 0.000000
							CHANNELS 3 Xrotation Yrotation Zrotation
							JOINT LeftHand
							{
								OFFSET 23.009392 0.000000 0.000000
								CHANNELS 3 Xrotation Yrotation Zrotation
								JOINT LeftHandThumb1
								{
									OFFSET 3.507191 -2.063065 3.133727
									CHANNELS 3 Xrotation Yrotation Zrotation
									JOINT LeftHandThumb2
									{
										OFFSET 3.101337 -1.790558 1.790558
										CHANNELS 3 Xrotation Yrotation Zrotation
										JOINT LeftHandThumb3
										{
											OFFSET 3.058640 -1.765907 1.765906
											CHANNELS 3 Xrotation Yrotation Zrotation
											End Site
											{
												OFFSET -0.415260 3.926476 -0.049563
											}
										}
									}
								}
								JOINT LeftHandIndex1
								{
									OFFSET 11.334419 -0.901459 3.706815
									CHANNELS 3 Xrotation Yrotation Zrotation
									JOINT LeftHandIndex2
									{
										OFFSET 3.283112 0.000000 0.000000
										CHANNELS 3 Xrotation Yrotation Zrotation
										JOINT LeftHandIndex3
										{
											OFFSET 3.323853 0.000000 0.000000
											CHANNELS 3 Xrotation Yrotation Zrotation
											End Site
											{
												OFFSET -1.135597 3.097809 0.402452
											}
										}
									}
								}
								JOINT LeftHandMiddle1
								{
									OFFSET 11.335861 0.000000 0.000000
									CHANNELS 3 Xrotation Yrotation Zrotation
									JOINT LeftHandMiddle2
									{
										OFFSET 3.410492 0.000000 0.000000
										CHANNELS 3 Xrotation Yrotation Zrotation
										JOINT LeftHandMiddle3
										{
											OFFSET 3.312172 0.000000 0.000000
											CHANNELS 3 Xrotation Yrotation Zrotation
											End Site
											{
												OFFSET -1.150200 3.080154 0.400270
											}
										}
									}
								}
								JOINT LeftHandRing1
								{
									OFFSET 11.514786 -0.013176 -3.003090
									CHANNELS 3 Xrotation Yrotation Zrotation
									JOINT LeftHandRing2
									{
										OFFSET 3.053307 0.000000 0.000000
										CHANNELS 3 Xrotation Yrotation Zrotation
										JOINT LeftHandRing3
										{
											OFFSET 3.295807 0.000000 0.000000
											CHANNELS 3 Xrotation Yrotation Zrotation
											End Site
											{
												OFFSET -1.281006 3.013344 0.375733
											}
										}
									}
								}
								JOINT LeftHandPinky1
								{
									OFFSET 10.518692 -0.960396 -5.730441
									CHANNELS 3 Xrotation Yrotation Zrotation
									JOINT LeftHandPinky2
									{
										OFFSET 2.861649 0.000000 0.000000
										CHANNELS 3 Xrotation Yrotation Zrotation
										JOINT LeftHandPinky3
										{
											OFFSET 2.863380 0.000000 0.000000
											CHANNELS 3 Xrotation Yrotation Zrotation
											End Site
											{
												OFFSET -0.843597 2.711159 0.369971
											}
										}
									}
								}
							}
							JOINT LSleeve
							{
								OFFSET 6.676277 -0.344902 -1.011730
								CHANNELS 3 Xrotation Yrotation Zrotation
								End Site
								{
									OFFSET 0.000000 14.885353 0.000000
								}
							}
						}
					}
				}
				JOINT RightShoulder
				{
					OFFSET -6.197800 13.665199 -4.064700
					CHANNELS 3 Xrotation Yrotation Zrotation
					JOINT RightArm
					{
						OFFSET -7.778100 -0.187103 -1.709300
						CHANNELS 3 Xrotation Yrotation Zrotation
						JOINT RightForeArm
						{
							OFFSET -22.049376 0.000000 0.000000
							CHANNELS 3 Xrotation Yrotation Zrotation
							JOINT RightHand
							{
								OFFSET -23.009392 0.000000 0.000000
								CHANNELS 3 Xrotation Yrotation Zrotation
								JOINT RightHandThumb1
								{
									OFFSET -3.507191 -2.063065 3.133727
									CHANNELS 3 Xrotation Yrotation Zrotation
									JOINT RightHandThumb2
									{
										OFFSET -3.101337 -1.790558 1.790558
										CHANNELS 3 Xrotation Yrotation Zrotation
										JOINT RightHandThumb3
										{
											OFFSET -3.058640 -1.765907 1.765906
											CHANNELS 3 Xrotation Yrotation Zrotation
											End Site
											{
												OFFSET 0.415260 3.926476 -0.049563
											}
										}
									}
								}
								JOINT RightHandIndex1
								{
									OFFSET -11.334419 -0.901459 3.706815
									CHANNELS 3 Xrotation Yrotation Zrotation
									JOINT RightHandIndex2
									{
										OFFSET -3.283112 0.000000 0.000000
										CHANNELS 3 Xrotation Yrotation Zrotation
										JOINT RightHandIndex3
										{
											OFFSET -3.323853 0.000000 0.000000
											CHANNELS 3 Xrotation Yrotation Zrotation
											End Site
											{
												OFFSET 1.135597 3.097809 0.402452
											}
										}
									}
								}
								JOINT RightHandMiddle1
								{
									OFFSET -11.335861 0.000000 0.000000
									CHANNELS 3 Xrotation Yrotation Zrotation
									JOINT RightHandMiddle2
									{
										OFFSET -3.410492 0.000000 0.000000
										CHANNELS 3 Xrotation Yrotation Zrotation
										JOINT RightHandMiddle3
										{
											OFFSET -3.312172 0.000000 0.000000
											CHANNELS 3 Xrotation Yrotation Zrotation
											End Site
											{
												OFFSET 1.150200 3.080154 0.400270
											}
										}
									}
								}
								JOINT RightHandRing1
								{
									OFFSET -11.514786 -0.013176 -3.003090
									CHANNELS 3 Xrotation Yrotation Zrotation
									JOINT RightHandRing2
									{
										OFFSET -3.053307 0.000000 0.000000
										CHANNELS 3 Xrotation Yrotation Zrotation
										JOINT RightHandRing3
										{
											OFFSET -3.295807 0.000000 0.000000
											CHANNELS 3 Xrotation Yrotation Zrotation
											End Site
											{
												OFFSET 1.281006 3.013344 0.375733
											}
										}
									}
								}
								JOINT RightHandPinky1
								{
									OFFSET -10.518692 -0.960396 -5.730441
									CHANNELS 3 Xrotation Yrotation Zrotation
									JOINT RightHandPinky2
									{
										OFFSET -2.861649 0.000000 0.000000
										CHANNELS 3 Xrotation Yrotation Zrotation
										JOINT RightHandPinky3
										{
											OFFSET -2.863380 0.000000 0.000000
											CHANNELS 3 Xrotation Yrotation Zrotation
											End Site
											{
												OFFSET 0.843597 2.711159 0.369971
											}
										}
									}
								}
							}
							JOINT RSleeve
							{
								OFFSET -6.676277 -0.344902 -1.011730
								CHANNELS 3 Xrotation Yrotation Zrotation
								End Site
								{
									OFFSET 0.000000 14.885353 0.000000
								}
							}
						}
					}
				}
				JOINT Backpack
				{
					OFFSET 0.000000 -2.471497 36.677502
					CHANNELS 3 Xrotation Yrotation Zrotation
					End Site
					{
						OFFSET 0.000000 20.427315 0.000000
					}
				}
				JOINT Hood
				{
					OFFSET 0.000000 18.754097 -10.431000
					CHANNELS 3 Xrotation Yrotation Zrotation
					JOINT Hood1
					{
						OFFSET 0.000000 -5.011002 -7.685901
						CHANNELS 3 Xrotation Yrotation Zrotation
						End Site
						{
							OFFSET 0.000000 9.175140 0.000000
						}
					}
				}
				JOINT LHoodieString
				{
					OFFSET 5.250500 16.397697 3.089900
					CHANNELS 3 Xrotation Yrotation Zrotation
					JOINT LHoodieString1
					{
						OFFSET 0.257700 -6.364304 3.694600
						CHANNELS 3 Xrotation Yrotation Zrotation
						JOINT LHoodieString2
						{
							OFFSET 0.000000 -9.643799 2.679100
							CHANNELS 3 Xrotation Yrotation Zrotation
							End Site
							{
								OFFSET 0.000000 10.009018 0.000000
							}
						}
					}
				}
				JOINT RHoodieString
				{
					OFFSET -5.250500 16.397697 3.089900
					CHANNELS 3 Xrotation Yrotation Zrotation
					JOINT RHoodieString1
					{
						OFFSET -0.257700 -6.364304 3.694600
						CHANNELS 3 Xrotation Yrotation Zrotation
						JOINT RHoodieString2
						{
							OFFSET 0.000000 -9.643799 2.679100
							CHANNELS 3 Xrotation Yrotation Zrotation
							End Site
							{
								OFFSET 0.000000 10.009018 0.000000
							}
						}
					}
				}
			}
			JOINT LBackpack_Strap
			{
				OFFSET 15.223200 -7.719803 -6.610900
				CHANNELS 3 Xrotation Yrotation Zrotation
				End Site
				{
					OFFSET 0.000000 16.040596 0.000000
				}
			}
			JOINT RBackpack_Strap
			{
				OFFSET -15.223000 -7.719803 -6.610900
				CHANNELS 3 Xrotation Yrotation Zrotation
				End Site
				{
					OFFSET 0.000000 16.040596 0.000000
				}
			}
		}
	}
	JOINT BoyFacialAnim_Joint
	{
		OFFSET 1.000000 -82.208099 -1.550900
		CHANNELS 3 Xrotation Yrotation Zrotation
		End Site
		{
			OFFSET 0.000000 30.012791 0.000000
		}
	}
}
MOTION
Frames: 4
Frame Time: 0.016667
-0.169135 73.867935 0.175032 3.016504 -58.257347 6.570143 -0.000000 0.000004 -0.000000 -35.248912 10.178938 24.280692 43.158866 -7.474284 -9.787939 -9.604942 -2.815436 -8.045712 -0.000000 0.000001 -0.000000 -0.000000 0.000001 -0.000000 -0.000000 -0.000000 -0.000001 -32.837654 -8.276830 -25.536491 48.055042 2.410771 -7.553417 -19.170278 2.844733 20.706774 -0.000000 -0.000000 0.000000 -0.000000 -0.000000 0.000000 0.000001 0.000003 0.000002 11.191589 0.111596 -2.787695 8.434600 0.027697 -5.592318 8.457035 0.027838 -5.591852 -21.556842 25.063179 12.062627 -0.293121 25.465698 -3.208472 0.000000 -0.000000 -0.000000 0.000000 -0.000000 -0.000000 0.000000 -0.000000 -0.000000 -6.221669 -11.503858 -4.023819 -23.062127 9.568637 -36.639614 0.046138 -43.169285 -0.011165 22.743719 -5.685825 15.979246 -1.064230 -7.954928 8.490110 2.373421 19.986073 -2.038316 0.000001 0.000000 -0.000001 13.340894 -1.006669 10.682313 -0.167596 0.303398 -31.105668 -0.000001 -0.000000 -0.000004 8.495447 -0.329519 -0.915263 0.231496 0.661242 -29.901882 0.000001 -0.000001 0.000002 6.111763 3.150912 -16.210925 0.047075 0.322419 -30.125465 -0.000002 0.000003 -0.000002 -5.636026 7.709866 -13.878574 0.224360 0.276607 -46.588341 0.000000 -0.000001 0.000001 -0.000001 0.000000 0.000004 -5.488247 10.658292 2.466532 -41.473814 -26.755531 30.078958 24.955449 111.863151 -23.308432 -8.702484 12.422930 -9.802063 0.265011 10.061056 -10.888470 1.383798 -17.412848 3.016283 0.000001 0.000001 -0.000001 19.443588 11.174428 -13.340165 -0.118645 -0.322729 18.035584 0.000001 0.000001 -0.000001 4.320460 2.436961 -4.811722 0.349128 -0.461255 26.890337 -0.000002 -0.000000 0.000005 -7.005609 -10.695144 5.719868 0.111864 -0.089214 26.155888 0.000000 0.000001 0.000000 -19.433531 -20.238235 5.987865 0.223801 -0.085775 36.844581 0.000001 -0.000002 0.000003 0.000000 0.000000 -0.000000 -0.000000 0.000000 0.000001 -0.000000 0.000000 0.000001 -0.000000 0.000000 0.000001 -0.000000 0.000000 0.000001 -0.000000 0.000000 0.000001 -0.000003 0.000002 -0.000002 -0.000000 0.000000 0.000001 -0.000000 0.000000 0.000001 -0.000003 0.000002 -0.000002 -0.000001 0.000000 -0.000001 -0.000001 0.000000 -0.000001 -0.000000 0.000004 -0.000000 
-0.293399 73.815567 0.235620 1.351229 -58.533041 4.915881 0.000000 0.000002 -0.000000 -34.416032 10.177582 24.770516 43.546144 -7.685950 -9.873902 -10.006313 -2.780020 -8.055755 -0.000000 0.000001 0.000000 -0.000000 0.000001 0.000000 0.000000 -0.000000 -0.000000 -31.996253 -8.659782 -25.481762 48.234335 2.898243 -7.537821 -19.417376 2.838209 20.521150 -0.000000 0.000000 0.000000 -0.000000 0.000000 0.000000 0.000001 -0.000001 -0.000002 10.938259 -0.071000 -2.556603 7.815274 -0.326025 -5.179802 7.841703 -0.289954 -5.218248 -16.952215 25.003601 11.382617 1.554969 25.240428 -5.687661 0.000000 0.000000 -0.000001 0.000000 0.000000 -0.000001 0.000000 0.000000 -0.000001 -6.685507 -11.300271 -5.194100 -20.846115 10.084647 -34.890874 4.501447 -44.384529 0.854187 12.301426 -3.504525 18.746824 -0.817773 -7.008229 8.688579 2.795503 20.865763 -1.954405 -0.000000 -0.000001 0.000001 13.346477 -1.013402 8.858987 -0.165549 0.304586 -32.928981 -0.000001 0.000001 -0.000003 8.466207 -0.311460 -2.738563 0.241814 0.667290 -31.725283 -0.000001 -0.000000 0.000002 6.092972 3.171965 -18.033079 0.048039 0.334590 -31.948825 -0.000000 0.000001 -0.000004 -5.643675 7.720616 -15.700942 0.231588 0.282319 -48.411732 -0.000001 0.000001 -0.000000 0.000001 -0.000000 0.000002 -5.634366 10.125356 2.634039 -41.005618 -24.756267 29.332186 24.443702 110.510350 -22.235770 -0.953722 8.719419 -11.067481 0.356407 9.641545 -10.977432 1.570916 -17.798302 2.977752 0.000002 0.000001 0.000001 19.447929 11.177519 -10.409359 -0.115828 -0.325252 20.967291 0.000001 0.000003 0.000004 4.273847 2.408375 -1.878588 0.365303 -0.471713 29.822095 0.000000 -0.000000 0.000002 -7.029068 -10.720213 8.646964 0.112289 -0.108821 29.087501 -0.000003 0.000000 0.000000 -19.442323 -20.249291 8.916435 0.233727 -0.096706 39.776252 -0.000003 -0.000003 -0.000000 0.000001 -0.000000 -0.000004 -0.000001 0.000003 -0.000002 -0.000001 0.000003 -0.000002 -0.000001 0.000003 -0.000002 -0.000001 0.000003 -0.000002 -0.000001 0.000003 -0.000001 -0.000002 0.000003 -0.000002 -0.000001 0.000003 -0.000002 -0.000001 0.000003 -0.000001 -0.000002 0.000003 -0.000002 0.000000 -0.000002 0.000001 0.000000 -0.000002 0.000001 0.000000 0.000002 -0.000000 
-0.493085 73.739532 0.459128 -0.229483 -58.911399 3.321272 0.000000 0.000000 0.000000 -33.548889 10.177393 25.262831 44.188923 -7.827717 -9.991311 -10.718898 -2.734735 -8.043013 0.000000 -0.000000 -0.000000 0.000000 -0.000000 -0.000000 -0.000000 0.000001 -0.000001 -31.116235 -9.017694 -25.520865 48.370717 3.544780 -7.504636 -19.729203 2.808748 20.390515 0.000000 -0.000001 0.000000 0.000000 -0.000001 0.000000 0.000001 -0.000000 -0.000000 10.330199 -0.476386 -1.985519 6.356272 -1.115953 -4.166064 6.388316 -1.004142 -4.289065 -6.596747 24.682772 10.020961 5.771837 24.455035 -11.198034 0.000002 0.000000 -0.000000 0.000002 0.000000 -0.000000 0.000002 0.000000 -0.000000 -7.444596 -11.224856 -7.938099 -17.825474 12.833954 -32.921201 9.087194 -48.058300 1.764707 2.794002 0.641300 21.567473 -0.555607 -5.986852 8.898253 3.257403 21.811548 -1.869783 0.000003 -0.000001 0.000000 13.352253 -1.020818 6.893187 -0.163308 0.305700 -34.894965 -0.000002 0.000001 0.000000 8.435337 -0.291008 -4.704294 0.253170 0.673448 -33.691339 -0.000001 0.000002 0.000000 6.073461 3.195257 -19.997745 0.049530 0.347708 -33.914700 -0.000003 0.000002 -0.000005 -5.651522 7.732443 -17.665769 0.239517 0.288184 -50.377720 0.000001 -0.000003 0.000001 0.000001 0.000001 0.000000 -5.983472 8.827086 3.075375 -38.745870 -19.254839 28.391995 20.208759 109.867506 -16.299992 7.140794 4.709867 -11.433870 0.455362 9.184262 -11.073766 1.772493 -18.218560 2.932612 -0.000003 -0.000002 0.000002 19.452503 11.181108 -7.215360 -0.112646 -0.327788 24.162122 -0.000001 -0.000002 0.000005 4.224831 2.374505 1.317762 0.383446 -0.482138 33.017042 0.000001 0.000000 -0.000004 -7.053110 -10.748768 11.837131 0.113814 -0.130201 32.282261 -0.000000 0.000002 0.000002 -19.451195 -20.261824 12.108206 0.245136 -0.108079 42.971063 -0.000001 0.000002 -0.000001 -0.000001 0.000003 0.000003 0.000003 -0.000001 -0.000001 0.000003 -0.000001 -0.000001 0.000003 -0.000001 -0.000001 0.000003 -0.000001 -0.000001 0.000003 -0.000001 -0.000001 -0.000000 -0.000001 -0.000000 0.000003 -0.000001 -0.000001 0.000003 -0.000001 -0.000001 -0.000000 -0.000001 -0.000000 0.000001 -0.000001 0.000001 0.000001 -0.000001 0.000001 0.000000 0.000000 0.000000 
-0.949256 73.681854 0.900397 -1.827967 -58.857133 1.785580 0.000000 -0.000000 0.000000 -32.502271 10.268771 25.609837 44.765456 -8.363738 -10.144586 -11.655469 -2.693708 -7.889604 0.000000 0.000000 0.000000 0.000000 0.000000 0.000000 -0.000001 0.000002 -0.000000 -29.712395 -9.522612 -25.766060 48.292719 3.918284 -7.473658 -20.315435 2.670022 20.528212 0.000000 0.000001 0.000000 0.000000 0.000001 0.000000 -0.000000 0.000000 0.000002 9.556947 -0.932251 -1.233369 4.553880 -2.005594 -2.831329 4.585544 -1.818068 -3.044923 5.236366 23.944280 8.810545 10.649096 23.072818 -17.338746 -0.000001 0.000000 -0.000000 -0.000001 0.000000 -0.000000 -0.000001 0.000000 -0.000000 -8.310468 -11.099487 -11.307728 -14.786344 15.433472 -31.237184 14.384655 -52.081384 3.335653 -5.543239 5.381418 24.045261 -0.295242 -4.957892 9.104969 3.727201 22.762630 -1.791826 0.000001 0.000000 0.000001 13.357830 -1.028556 4.914081 -0.161026 0.306781 -36.874135 0.000001 -0.000002 -0.000006 8.404989 -0.269311 -6.683309 0.264751 0.679259 -35.670636 0.000001 -0.000002 0.000003 6.054690 3.219364 -21.975638 0.051447 0.360831 -35.893846 -0.000003 0.000003 -0.000002 -5.658983 7.744611 -19.643921 0.247707 0.293889 -52.356924 -0.000000 -0.000001 -0.000000 -0.000001 0.000001 0.000000 -6.427618 7.045148 3.807187 -35.653799 -12.738062 26.064685 13.821696 110.918461 -7.469562 13.357313 1.174500 -10.753084 0.549456 8.746527 -11.165461 1.973958 -18.615990 2.888149 -0.000004 -0.000001 -0.000000 19.456639 11.184789 -4.158313 -0.109477 -0.330067 27.220023 -0.000000 0.000002 0.000002 4.179712 2.339658 4.376957 0.401399 -0.491179 36.074996 -0.000000 0.000001 0.000000 -7.074574 -10.777311 14.890791 0.116404 -0.150544 35.340041 -0.000001 0.000001 0.000004 -19.458987 -20.274194 15.163320 0.256660 -0.118293 46.028952 -0.000001 0.000000 0.000002 -0.000001 -0.000001 -0.000000 0.000000 -0.000004 0.000001 0.000000 -0.000004 0.000001 0.000000 -0.000004 0.000001 0.000000 -0.000004 0.000001 0.000000 -0.000004 0.000002 -0.000000 -0.000002 0.000001 0.000000 -0.000004 0.000001 0.000000 -0.000004 0.000002 -0.000000 -0.000002 0.000001 -0.000000 0.000000 0.000000 -0.000000 0.000000 0.000000 0.000000 -0.000000 0.000000 
